<?xml version="1.0" encoding="UTF-8"?>
<svg id="Layer_1" data-name="Layer 1" xmlns="http://www.w3.org/2000/svg" viewBox="0 0 180.74 167.47">
  <defs>
    <style>
      .cls-1 {
        fill: #fff;
      }

      .cls-1, .cls-2 {
        stroke: #231f20;
        stroke-miterlimit: 10;
      }
    </style>
  </defs>
  <rect class="cls-2" x=".5" y=".5" width="179.74" height="166.47" rx="11.91" ry="11.91"/>
  <ellipse class="cls-1" cx="27.18" cy="24.12" rx="19.28" ry="18.26"/>
  <ellipse class="cls-1" cx="68.8" cy="61.39" rx="17.49" ry="16.72"/>
  <ellipse class="cls-1" cx="105.56" cy="98.41" rx="15.45" ry="14.94"/>
  <ellipse class="cls-1" cx="144.88" cy="134.16" rx="12.38" ry="11.36"/>
  <path class="cls-1" d="M169.28,5.35h-80.87c-.94,0-1.7.76-1.7,1.7v5.79c0,.94.76,1.7,1.7,1.7l70.26.04c.94,0,1.7.76,1.7,1.7l.04,48.4c0,.93.75,1.69,1.69,1.7l7.81.06c.95,0,1.73-.77,1.71-1.72l-.64-57.69c-.01-.93-.77-1.68-1.7-1.68Z"/>
</svg>