<?xml version="1.0" encoding="UTF-8"?>
<svg id="Layer_1" data-name="Layer 1" xmlns="http://www.w3.org/2000/svg" viewBox="0 0 269.7 99.86">
  <defs>
    <style>
      .cls-1 {
        fill: #6466ae;
      }

      .cls-1, .cls-2, .cls-3 {
        stroke-width: 0px;
      }

      .cls-2 {
        fill: #fff;
      }

      .cls-3 {
        fill: #231f20;
      }
    </style>
  </defs>
  <path class="cls-1" d="M0,92.92L4.25,23.29l5.16-1.69c3.48-1.14,5.29-1.72,8.8-2.8l11.18-3.44v.14s3.4-.92,3.4-.92c2.76-.75,4.36-1.17,6.74-1.77,2.19-3.73,5.63-6.41,9.42-7.27.88-.2,1.77-.3,2.64-.3,1.14,0,2.24.17,3.27.5l4.33-.87c3-.6,4.55-.9,7.56-1.45l10.95-1.99-2.18,14.91c3.21.37,6.04,1.84,8.27,4.31.07.08.14.16.21.24,3.65-4.69,8.21-7.49,13.18-8.02.6-.06,1.21-.1,1.8-.1,2.38,0,4.62.51,6.63,1.5C108.54,5.9,115.41.23,123.45,0c.16,0,.31,0,.47,0,6.28,0,12.19,3.4,16.21,9.33l2.19,3.22c1.99-.92,4.12-1.41,6.28-1.41.21,0,.42,0,.62.01,2.03.09,3.96.53,5.76,1.31l-.02-.28,9.39.83c2.3.2,3.45.31,5.75.56l3.38.35c1-.24,2.03-.36,3.07-.36.59,0,1.18.04,1.77.12,4.36.57,8.03,2.88,10.72,6.72,1.57-1.47,3.41-2.5,5.39-3.04l-2.5-14.99,11.46,2.41c2.68.56,4.08.87,6.77,1.5l5.13,1.19,3.18,17.51c1.87-1.03,3.98-1.58,6.21-1.58,1.29,0,2.6.19,3.9.55,1.55.44,3.06,1.09,4.51,1.96l10.69,3.52c2.31.76,3.47,1.15,5.79,1.96l3.01,1.05c.08,0,.16,0,.22,0,1.34,0,2.7.25,4.03.74,2.18.81,3.97,1.89,5.63,3.4l2.06,1.87,5.1,31.02-6.51-4.59,6.58,25.35-22.25,7.38-24.89-8c-1.12-.09-2.2-.31-3.24-.66-1.15-.39-2.26-.87-3.39-1.47l-7.5-2.41-4.15-.95c-2.08-.49-3.1-.72-5.16-1.17l-1.82-.4c-.72.15-1.45.23-2.18.23-.85,0-1.7-.11-2.52-.31-1.51-.38-2.97-.98-4.33-1.79l-8.33-1.22c-2.44-.36-3.68-.53-6.03-.82-1.99.1-8.48.12-13.88.12h-.41l-6.83-1.92c-1.46.45-2.93.67-4.38.67-.15,0-.3,0-.45,0-3.64-.11-7.05-1.46-9.94-3.9l-4.51-.06c-2.98,2.59-6.59,4.07-10.51,4.29-.32.02-.65.03-.97.03-3.59,0-7.17-1.17-10.33-3.32-3.29,2.98-7.11,4.91-10.81,5.39-.7.09-1.4.14-2.08.14-4.29,0-8.11-1.71-11.03-4.95-.02-.03-.05-.06-.07-.08-3,4.73-6.84,7.78-11.48,9.1-.94.27-1.91.4-2.89.4-.73,0-1.45-.07-2.17-.22l-2.33.54c-2.24.52-3.36.8-5.63,1.36l-3.32.83-3.08.84c-2.98.81-4.43,1.22-7.4,2.09l-9.77,2.87-.06.14-3.27,1.08c-3.75,1.24-5.59,1.88-9.38,3.24l-7.18,2.57L0,92.92Z"/>
  <path class="cls-1" d="M266.09,88.24l-7.93-30.56,7.35,5.18-3.77-22.93-1.29-1.17c-1.39-1.26-2.82-2.13-4.65-2.81-1-.37-2-.55-2.99-.55-.31,0-.92.03-1.68.21l-.2-.6-2.35-.82c-2.3-.8-3.45-1.19-5.74-1.94l-8.57-2.82.31,1.27c-2.1-1.87-4.39-3.2-6.82-3.89-1.04-.29-2.08-.44-3.09-.44-3,0-5.73,1.3-7.69,3.65-.18.22-.35.45-.52.69l-3.78-20.79-3.21-.74c-2.68-.62-4.07-.93-6.72-1.48l-7.17-1.51,2.29,13.73c-.08,0-.17,0-.25,0-2.76,0-5.34,1.2-7.28,3.38-.22.24-.41.52-.61.78l-2.24-.47c-1.95-3.48-4.94-6.37-9.6-6.98-.46-.06-.93-.09-1.38-.09-1.12,0-2.14.17-3.07.47l-.02-.1-3.67-.39c-2.28-.24-3.42-.35-5.7-.55l-5.87-.52.23,3.08c-2.52-2.7-5.67-4.25-9.35-4.4-.17,0-.33-.01-.5-.01-3.3,0-6.52,1.43-9.07,4.03-1.97,2-3.5,4.62-4.58,7.73-.44-.51-.9-.99-1.38-1.43l.85-1.61c1.43-2.73,2.14-4.06,3.52-6.68l1.4-2.66-1.69-2.49c-3.46-5.09-8.46-8.01-13.73-8.01-.13,0-.26,0-.39,0-8.05.22-14.58,7.01-16.09,16.24-2.26-2.26-5.18-3.47-8.46-3.47-.49,0-.99.03-1.49.08-5.41.57-10.23,4.53-13.58,10.63-.62-1.49-1.4-2.77-2.35-3.82-2.02-2.23-4.67-3.42-7.68-3.42-.6,0-1.22.05-1.85.15l2.08-14.27-6.84,1.24c-2.98.54-4.52.84-7.5,1.44l-3.39.68-.21,1.29c-1.28-1-2.87-1.54-4.6-1.54-.64,0-1.31.08-1.97.23-3.4.78-6.36,3.4-8.07,6.93-3.13.78-4.8,1.22-7.97,2.08l-2.46.67-6.11,16.17,1.08-14.79-6.99,2.15c-3.47,1.07-5.26,1.64-8.75,2.78l-3.23,1.06-3.98,65.33,16.61,5.84,6.18-2.21c3.81-1.37,5.67-2.01,9.45-3.26l1.93-.64.74-1.9c.68-1.74,1.36-3.48,2.04-5.22l3.15-2.05c-.05.23-.09.46-.14.69l-1.38,7,6.85-2.01c3-.88,4.47-1.29,7.46-2.11l2.64-.72h0s3.8-.97,3.8-.97c2.28-.57,3.42-.85,5.68-1.38l2.48-.58.08-.28c.85.3,1.72.46,2.62.46.7,0,1.39-.1,2.07-.29,6.03-1.71,9.75-6.86,12.04-12.16.68,1.53,1.54,2.89,2.56,4.02,2.34,2.59,5.38,3.96,8.8,3.96.56,0,1.13-.04,1.69-.11,3.74-.49,7.81-2.89,10.95-6.43,3.05,2.76,6.77,4.33,10.57,4.33.27,0,.53,0,.8-.02,3.71-.21,6.98-1.78,9.52-4.31l6.84.09c2.47,2.39,5.49,3.78,8.87,3.88.12,0,.23,0,.35,0,1.44,0,2.89-.29,4.3-.81l7.32,2.06s13.02,0,13.98-.13c2.58.32,3.83.49,6.37.86l5.62.82-.04-.3c.95.12,1.87.25,2.73.36,1.36.98,2.9,1.74,4.65,2.18.58.15,1.18.22,1.79.22.72,0,1.44-.11,2.13-.31l2.51.54c2.08.45,3.11.69,5.19,1.18l4.27.98,7.89,2.53c.99.54,2.04,1.02,3.16,1.4.93.31,1.88.49,2.85.54l24.31,7.81,18.65-6.19ZM243.27,78.35c.95-.38,1.84-.88,2.67-1.48l.84,3.42-3.36-1.38-.14-.55Z"/>
  <path class="cls-3" d="M266.09,88.24l-7.93-30.56,7.35,5.18-3.77-22.93-1.29-1.17c-1.39-1.26-2.82-2.13-4.65-2.81-1-.37-2-.55-2.99-.55-.31,0-.92.03-1.68.21l-.2-.6-2.35-.82c-2.3-.8-3.45-1.19-5.74-1.94l-8.57-2.82.31,1.27c-2.1-1.87-4.39-3.2-6.82-3.89-1.04-.29-2.08-.44-3.09-.44-3,0-5.73,1.3-7.69,3.65-.18.22-.35.45-.52.69l-3.78-20.79-3.21-.74c-2.68-.62-4.07-.93-6.72-1.48l-7.17-1.51,2.29,13.73c-.08,0-.17,0-.25,0-2.76,0-5.34,1.2-7.28,3.38-.22.24-.41.52-.61.78l-2.24-.47c-1.95-3.48-4.94-6.37-9.6-6.98-.46-.06-.93-.09-1.38-.09-1.12,0-2.14.17-3.07.47l-.02-.1-3.67-.39c-2.28-.24-3.42-.35-5.7-.55l-5.87-.52.23,3.08c-2.52-2.7-5.67-4.25-9.35-4.4-.17,0-.33-.01-.5-.01-3.3,0-6.52,1.43-9.07,4.03-1.97,2-3.5,4.62-4.58,7.73-.44-.51-.9-.99-1.38-1.43l.85-1.61c1.43-2.73,2.14-4.06,3.52-6.68l1.4-2.66-1.69-2.49c-3.46-5.09-8.46-8.01-13.73-8.01-.13,0-.26,0-.39,0-8.05.22-14.58,7.01-16.09,16.24-2.26-2.26-5.18-3.47-8.46-3.47-.49,0-.99.03-1.49.08-5.41.57-10.23,4.53-13.58,10.63-.62-1.49-1.4-2.77-2.35-3.82-2.02-2.23-4.67-3.42-7.68-3.42-.6,0-1.22.05-1.85.15l2.08-14.27-6.84,1.24c-2.98.54-4.52.84-7.5,1.44l-3.39.68-.21,1.29c-1.28-1-2.87-1.54-4.6-1.54-.64,0-1.31.08-1.97.23-3.4.78-6.36,3.4-8.07,6.93-3.13.78-4.8,1.22-7.97,2.08l-2.46.67-6.11,16.17,1.08-14.79-6.99,2.15c-3.47,1.07-5.26,1.64-8.75,2.78l-3.23,1.06-3.98,65.33,16.61,5.84,6.18-2.21c3.81-1.37,5.67-2.01,9.45-3.26l1.93-.64.74-1.9c.68-1.74,1.36-3.48,2.04-5.22l3.15-2.05c-.05.23-.09.46-.14.69l-1.38,7,6.85-2.01c3-.88,4.47-1.29,7.46-2.11l2.64-.72h0s3.8-.97,3.8-.97c2.28-.57,3.42-.85,5.68-1.38l2.48-.58.08-.28c.85.3,1.72.46,2.62.46.7,0,1.39-.1,2.07-.29,6.03-1.71,9.75-6.86,12.04-12.16.68,1.53,1.54,2.89,2.56,4.02,2.34,2.59,5.38,3.96,8.8,3.96.56,0,1.13-.04,1.69-.11,3.74-.49,7.81-2.89,10.95-6.43,3.05,2.76,6.77,4.33,10.57,4.33.27,0,.53,0,.8-.02,3.71-.21,6.98-1.78,9.52-4.31l6.84.09c2.47,2.39,5.49,3.78,8.87,3.88.12,0,.23,0,.35,0,1.44,0,2.89-.29,4.3-.81l7.32,2.06s13.02,0,13.98-.13c2.58.32,3.83.49,6.37.86l5.62.82-.04-.3c.95.12,1.87.25,2.73.36,1.36.98,2.9,1.74,4.65,2.18.58.15,1.18.22,1.79.22.72,0,1.44-.11,2.13-.31l2.51.54c2.08.45,3.11.69,5.19,1.18l4.27.98,7.89,2.53c.99.54,2.04,1.02,3.16,1.4.93.31,1.88.49,2.85.54l24.31,7.81,18.65-6.19ZM243.27,78.35c.95-.38,1.84-.88,2.67-1.48l.84,3.42-3.36-1.38-.14-.55Z"/>
  <g>
    <path class="cls-2" d="M11.9,29.2c3.49-1.15,5.22-1.7,8.66-2.75-.66,9.01-1,13.73-1.74,23.75-.38,5.86-1.02,11.56-1.43,17.94.1-.03.14-.05.24-.08,2.79-7.17,4.98-13.35,7.45-19.83,4.17-11.03,6.11-16.17,9.8-25.92,3.23-.88,4.83-1.29,8-2.09-7.77,19.85-15.53,39.71-23.28,59.56-4.36,1.45-6.56,2.21-11.02,3.8,1.11-18.13,2.21-36.25,3.31-54.38Z"/>
    <path class="cls-2" d="M45.21,20.08c.67-3.4,2.98-6.17,5.51-6.74,2.53-.58,3.95,1.32,3.36,4.68-.59,3.33-2.9,6.22-5.51,6.84-2.61.62-4.03-1.4-3.36-4.77ZM43.55,31.51c3.18-.81,4.75-1.19,7.89-1.92-2.55,14.31-5.13,28.61-7.7,42.92-3.46.94-5.2,1.43-8.72,2.46,2.85-14.48,5.7-28.97,8.54-43.45Z"/>
    <path class="cls-2" d="M59.55,63.84c-.08.02-.12.03-.21.05-.57,1.99-.86,3-1.44,5.04-2.64.62-3.97.94-6.64,1.61,3.19-19.27,6.36-38.55,9.5-57.83,2.98-.6,4.46-.88,7.41-1.42-.72,4.91-1.09,7.43-1.85,12.65-.42,2.34-.63,3.52-1.05,5.92,2.36-3.03,5-5.08,7.4-5.5,6.16-1.08,8.99,5.76,7.71,18.22-.94,9.11-5.03,22.97-14.33,25.61-2.31.66-4.84-.98-6.5-4.35ZM72.33,44.17c.95-7.42-.04-10.62-3.13-10.04-1.59.3-3.13,1.64-5.03,4.47-.98,6.64-1.49,10.09-2.55,17.27,1.16,1.73,2.62,2.12,4,1.84,2.85-.59,5.62-4.97,6.71-13.53Z"/>
    <path class="cls-2" d="M84.26,42.68c1.35-13.26,7.87-21.24,13.76-21.86,7-.74,10.03,6.47,9.47,17.29-.11,2.12-.39,4.29-.59,5.28-6.14.57-9.23.93-15.48,1.76.18,5.88,2.59,8.42,6.11,7.98,2-.25,3.86-1.43,5.86-3.41.85,2.88,1.27,4.34,2.14,7.31-2.87,3.33-6.59,5.61-9.8,6.03-7.7,1.01-12.87-6.87-11.49-20.4ZM101.23,36.17c.28-4.33-.71-7.22-3.68-6.89-2.35.26-4.58,2.87-5.53,7.96,3.7-.47,5.54-.69,9.2-1.07Z"/>
    <path class="cls-2" d="M109.42,53.4c1.94-3.61,2.89-5.38,4.76-8.82,2.27,3.14,5.33,5.27,8.1,5.13,3.18-.16,4.74-2.24,4.77-5.4.03-3.35-1.84-4.33-4.67-6.06-1.69-1.07-2.53-1.6-4.2-2.64-3.34-1.97-6.36-6.14-6.06-13.17.34-8.02,5.19-14.26,11.56-14.44,3.53-.1,7.17,1.88,9.84,5.82-1.39,2.62-2.09,3.96-3.53,6.7-2.06-2.37-3.99-3.63-6.46-3.55-2.44.08-4.04,1.67-4.11,4.42-.08,2.94,1.98,3.94,4.74,5.55,1.61.96,2.42,1.44,4.05,2.43,3.9,2.35,6.39,6.35,6.45,13.8.07,8.75-4.56,16.98-12.77,17.45-4.49.26-9.22-2.22-12.48-7.21Z"/>
    <path class="cls-2" d="M138.12,38.51c-.21-12.73,5.14-19.62,10.77-19.37,6.67.29,10.42,7.84,11.1,18.4.13,2.06.11,4.16.03,5.1-5.86-.39-8.81-.52-14.72-.64.84,5.78,3.44,8.63,6.79,8.75,1.9.07,3.56-.8,5.26-2.43,1.14,2.96,1.72,4.46,2.89,7.52-2.4,2.82-5.73,4.46-8.76,4.37-7.3-.23-13.15-8.71-13.36-21.7ZM153.71,34.67c-.22-4.21-1.5-7.2-4.32-7.31-2.23-.09-4.09,2.15-4.42,6.98,3.51.08,5.26.15,8.75.33Z"/>
    <path class="cls-2" d="M163.65,20.97c2.25.2,3.37.31,5.62.54.36,1.83.54,2.76.91,4.63.07,0,.1.01.17.02,1.71-2.74,3.79-4.97,6.94-4.56,5.03.65,7.82,6.34,9,15.9,1.17,9.49,1.78,14.48,3.09,25.06-2.98-.44-4.48-.64-7.46-1.01-1.07-9.92-1.57-14.61-2.54-23.57-.6-5.53-1.68-7.27-3.7-7.51-1.76-.21-2.7.94-4.04,3.14.93,10.2,1.42,15.58,2.47,27.06-3-.3-4.49-.43-7.5-.67-.98-13.01-1.97-26.03-2.95-39.04Z"/>
    <path class="cls-2" d="M191.67,42.92c-1.55-12.66,2.09-18.84,6.94-17.9,2.54.49,4.32,2.28,6.28,4.93-.47-2.24-.7-3.34-1.16-5.53-.81-4.86-1.2-7.22-1.97-11.82,2.65.56,3.97.85,6.62,1.46,3.27,18,6.54,36.01,9.81,54.01-2.44-.58-3.65-.85-6.09-1.38-.5-1.75-.75-2.62-1.25-4.34-.07-.02-.11-.02-.18-.04-1.26,2.61-3.56,4.47-5.82,3.9-8.77-2.22-12.17-15.08-13.17-23.28ZM208.57,53.51c-1.11-6.68-1.65-9.9-2.69-16.12-1.53-2.04-3.01-2.93-4.29-3.18-2.26-.45-3.75,2.4-2.64,9.85,1.15,7.69,3.38,11.74,6.21,12.3,1.56.31,2.65-.43,3.41-2.85Z"/>
    <path class="cls-2" d="M219.32,48.61c-2.38-12.8,1.53-18.55,7.1-16.98,6.6,1.86,11.66,10.46,14.23,21.38.5,2.14.85,4.26.95,5.2-5.87-1.87-8.8-2.74-14.63-4.33,1.86,6.04,4.92,9.57,8.25,10.55,1.88.55,3.37.09,4.76-1.12,1.66,3.3,2.5,4.97,4.22,8.39-1.87,2.25-5.02,3.12-7.88,2.16-9.82-3.29-15.17-15.43-16.99-25.25ZM233.95,48.54c-.97-4.33-2.77-7.67-5.56-8.46-2.21-.63-3.63,1.19-3.1,6,3.46.94,5.19,1.43,8.66,2.47Z"/>
    <path class="cls-2" d="M241.29,37.01c2.26.74,3.39,1.13,5.66,1.92.87,2.69,1.32,4.05,2.21,6.82.07.02.11.04.18.06.4-4.54,2.32-6.04,4.72-5.15,1.35.5,2.2,1.07,3.02,1.81.61,3.7.92,5.58,1.55,9.44-.96-.67-1.74-1.23-2.78-1.61-1.82-.67-3.52.38-3.39,5.41,2.42,9.34,3.69,14.23,6.38,24.58-3.05-1.11-4.57-1.64-7.6-2.68-3.32-13.53-6.65-27.07-9.97-40.6Z"/>
  </g>
</svg>